<?xml version="1.0" standalone="no"?><!DOCTYPE svg PUBLIC "-//W3C//DTD SVG 1.1//EN" "http://www.w3.org/Graphics/SVG/1.1/DTD/svg11.dtd"><svg t="1705301378438" class="icon" viewBox="0 0 1024 1024" version="1.1" xmlns="http://www.w3.org/2000/svg" p-id="1706" width="32" height="32" xmlns:xlink="http://www.w3.org/1999/xlink"><path d="M110.404543 511.769991A17.250674 17.250674 0 0 0 93.153869 494.519317H57.502476v34.501348h35.651393a17.250674 17.250674 0 0 0 17.250674-17.250674zM245.419817 494.979335h-76.132974a17.250674 17.250674 0 0 0 0 34.501348h76.132974a17.250674 17.250674 0 1 0 0-34.501348zM397.685765 494.979335h-76.132974a17.250674 17.250674 0 0 0 0 34.501348h76.132974a17.250674 17.250674 0 0 0 0-34.501348zM550.066717 494.979335H529.020895v34.501348h21.045822a17.250674 17.250674 0 0 0 0-34.501348zM473.703734 494.979335a17.250674 17.250674 0 0 0 0 34.501348H494.519547v-34.501348zM702.102656 494.979335h-76.132974a17.250674 17.250674 0 0 0 0 34.501348h76.132974a17.250674 17.250674 0 0 0 0-34.501348zM854.368604 494.979335h-76.132974a17.250674 17.250674 0 0 0 0 34.501348h76.132974a17.250674 17.250674 0 0 0 0-34.501348zM930.386573 494.979335a17.250674 17.250674 0 0 0 0 34.501348H966.037966v-34.501348zM511.770221 115.46451a17.250674 17.250674 0 0 0 17.250674-17.250674v-40.251572h-34.501348v40.251572a17.250674 17.250674 0 0 0 17.250674 17.250674zM511.770221 258.760108A17.250674 17.250674 0 0 0 529.020895 241.509434v-71.877808a17.250674 17.250674 0 1 0-34.501348 0v72.337826a17.250674 17.250674 0 0 0 17.250674 16.790656zM511.770221 402.975741a17.250674 17.250674 0 0 0 17.250674-17.250674v-72.222821a17.250674 17.250674 0 1 0-34.501348 0v71.877808a17.250674 17.250674 0 0 0 17.250674 17.595687zM494.519547 529.480683a17.250674 17.250674 0 0 0 34.501348 0h-34.501348zM511.770221 727.863432a17.250674 17.250674 0 0 0-17.250674 17.250674v71.877808a17.250674 17.250674 0 0 0 34.501348 0v-71.877808a17.250674 17.250674 0 0 0-17.250674-17.250674zM511.770221 583.992812a17.250674 17.250674 0 0 0-17.250674 17.250674v71.877808a17.250674 17.250674 0 0 0 34.501348 0v-71.877808a17.250674 17.250674 0 0 0-17.250674-17.250674zM529.020895 457.372866a17.250674 17.250674 0 0 0-34.501348 0v37.606469h34.501348z" fill="#ffffff" p-id="1707"></path><path d="M494.519547 494.519317h34.501348v34.501348h-34.501348zM529.020895 888.984726a17.250674 17.250674 0 0 0-34.501348 0v69.002695a17.480683 17.480683 0 0 0 2.070081 8.050315h30.476191a17.480683 17.480683 0 0 0 2.07008-8.050315z" fill="#ffffff" p-id="1708"></path><path d="M994.789089 0.460018h-966.037736A28.636119 28.636119 0 0 0 0.00023 29.211141v966.037736a28.751123 28.751123 0 0 0 28.751123 28.751123h966.037736a28.751123 28.751123 0 0 0 28.751123-28.751123v-966.037736a28.636119 28.636119 0 0 0-28.751123-28.751123z m4.60018 529.020665H966.037966v437.017071H527.065819a17.135669 17.135669 0 0 1-15.180593 9.200359 17.480683 17.480683 0 0 1-15.180593-9.200359H57.502476v-437.017071H24.151174a17.250674 17.250674 0 0 1 0-34.501348H57.502476v-437.017071h437.017071v-28.751123a17.250674 17.250674 0 1 1 34.501348 0v28.751123h437.017071v437.017071h33.351303a17.250674 17.250674 0 0 1 0 34.501348z" fill="#1296db" p-id="1709"></path><path d="M24.151174 494.979335a17.250674 17.250674 0 0 0 0 34.501348H57.502476v-34.501348zM999.389269 494.979335H966.037966v34.501348h33.351303a17.250674 17.250674 0 0 0 0-34.501348zM529.020895 28.751123a17.250674 17.250674 0 1 0-34.501348 0v29.211141h34.501348zM511.770221 975.238095a17.135669 17.135669 0 0 0 15.295598-8.740341h-30.476191a17.480683 17.480683 0 0 0 15.180593 8.740341z" fill="#1296db" p-id="1710"></path></svg>