<?xml version="1.0" standalone="no"?><!DOCTYPE svg PUBLIC "-//W3C//DTD SVG 1.1//EN" "http://www.w3.org/Graphics/SVG/1.1/DTD/svg11.dtd"><svg t="1705301397650" class="icon" viewBox="0 0 1024 1024" version="1.1" xmlns="http://www.w3.org/2000/svg" p-id="2108" xmlns:xlink="http://www.w3.org/1999/xlink" width="32" height="32"><path d="M1018.23452654 1016.89386202H4.55887634V7.91053605h1013.6756502v1008.98332597z m-967.95902537-45.71662326h922.10833471V53.62715932H50.27550117v917.55007944z m0 0" fill="#1296db" p-id="2109"></path><path d="M34.32160535 531.84181882h11.39564054c6.83738369 0 11.39563895-4.55825526 11.39563897-11.39563896 0-4.55825526-4.55825526-11.39563895-11.39563897-11.39563896h-11.39564054c-6.83738369 0-11.39563895 6.83738369-11.39563895 11.39563896 0 6.83738369 4.55825526 11.39563895 11.39563895 11.39563896z m77.75848227-22.79127792H89.15474229c-6.83738369 0-11.39563895 4.55825526-11.39564053 11.39563896 2.27912842 6.83738369 6.83738369 11.39563895 13.67476738 11.39563896h22.92534533c6.83738369 0 11.39563895-4.55825526 11.39564054-11.39563896s-6.83738369-11.39563895-13.67476739-11.39563896z m217.32154785 9.11651053c0-6.83738369-4.55825526-11.39563895-11.39563896-11.39563896h-22.92534531c-6.83738369 0-11.39563895 4.55825526-11.39564055 11.39563896s4.55825526 11.39563895 11.39564055 11.39564054h22.92534531c4.55825526 0 11.39563895-4.55825526 11.39563896-11.39564054z m203.64678048-2.27912684c0-2.27912842 0-6.83738369-2.27912686-9.11651212 4.55825526-4.55825526 4.55825526-11.39563895 0-16.08796163-4.55825526-4.55825526-11.39563895-4.55825526-15.9538958 0-4.55825526-4.55825526-11.39563895-4.55825526-15.95389581 0-4.55825526 4.55825526-4.55825526 9.11651213-2.27912686 13.67476739-4.55825526 2.27912842-9.11651213 4.55825526-9.1165121 11.39563895s4.55825526 11.39563895 11.39563896 11.39564054h2.27912842v15.95389425c0 6.83738369 4.55825526 11.39563895 11.39563896 11.39564054s11.39563895-4.55825526 11.39564054-11.39564054v-15.95389425c4.55825526-2.14506103 9.11651213-6.70331787 9.11651055-11.26157313z m-306.60973492 13.67476738h22.92534534c6.83738369 0 11.39563895-4.55825526 11.39563896-11.39564054s-4.55825526-11.39563895-11.39563896-11.39563896h-22.92534534c-6.83738369 0-11.39563895 4.55825526-11.39563895 11.39563896s4.55825526 11.39563895 11.39563895 11.39564054z m-34.3209843-9.11651211c0-6.83738369-4.55825526-11.39563895-11.39564054-11.39563896h-22.92534531c-6.83738369 0-11.39563895 4.55825526-11.39563895 11.39563896s4.55825526 11.39563895 11.39563895 11.39563896h22.92534531c6.83738369 0 11.39563895-6.83738369 11.39564054-11.39563896z m237.96776478 6.83738368h22.92534532c6.83738369 0 11.39563895-4.55825526 11.39564054-11.39563895s-4.55825526-11.39563895-11.39564054-11.39564054h-22.92534532c-6.83738369 0-11.39563895 4.55825526-11.39563898 11.39564054s4.55825526 11.39563895 11.39563898 11.39563895z m-68.64196859 2.27912843h22.92534533c6.83738369 0 11.39563895-4.55825526 11.39563896-11.39564054s-6.83738369-11.39563895-11.39563896-11.39563896h-22.92534533c-6.83738369 0-11.39563895 4.55825526-11.39564055 11.39563896s6.83738369 11.39563895 11.39564055 11.39564054z m430.21890626-27.48360217H768.73705386c-6.83738369 0-11.39563895 4.55825526-11.39563897 11.39564054s4.55825526 11.39563895 11.39563897 11.39563895h22.92534532c6.83738369 0 11.39563895-4.55825526 11.39564052-11.39563895 0-6.70331787-4.55825526-11.39563895-11.39564052-11.39564054z m45.71662483 20.64621848h22.92534531c6.83738369 0 11.39563895-4.55825526 11.39563898-11.39564054s-4.55825526-11.39563895-11.39563898-11.39563895h-22.92534531c-6.83738369 0-11.39563895 4.55825526-11.39563895 11.39563895s4.55825526 11.39563895 11.39563895 11.39564054z m-112.07946656-20.64621848h-22.92534533c-6.83738369 0-11.39563895 4.55825526-11.39563897 11.39564054s4.55825526 11.39563895 11.39563897 11.39563895h22.92534533c6.83738369 0 11.39563895-4.55825526 11.39564053-11.39563895 0-6.70331787-6.83738369-11.39563895-11.39564053-11.39564054z m-68.64196858 0h-22.92534535c-6.83738369 0-11.39563895 4.55825526-11.39564053 11.39564054s4.55825526 11.39563895 11.39564053 11.39563895h22.92534535c6.83738369 0 11.39563895-4.55825526 11.39563896-11.39563895 0-4.42418944-4.55825526-9.11651213-11.39563896-11.39564054z m-68.64197016 2.27912843h-22.92534531c-6.83738369 0-11.39563895 4.55825526-11.39563897 11.39563895s4.55825526 11.39563895 11.39563897 11.39564054h22.92534531c6.83738369 0 11.39563895-4.55825526 11.39563896-11.39564054 0-6.70331787-4.55825526-11.39563895-11.39563896-11.39563895zM906.02099417 522.72530828h22.92534532c6.83738369 0 11.39563895-4.55825526 11.39563895-11.39564054s-6.83738369-11.39563895-11.39563895-11.39563895h-22.92534532c-6.83738369 0-11.39563895 4.55825526-11.39564055 11.39563895s4.55825526 11.39563895 11.39564055 11.39564054z m66.36284171 0c2.27912842 0 2.27912842 0 0 0h11.39563897c6.83738369 0 11.39563895-4.55825526 11.39563895-11.39564054s-4.55825526-11.39563895-11.39563895-11.39563895h-11.39563897c-6.83738369 0-11.39563895 4.55825526-11.39564054 11.39563895 2.27912842 6.83738369 6.83738369 11.39563895 11.39564054 11.39564054z m-459.84757102 457.56844103c-6.83738369 0-11.39563895 4.55825526-11.39563896 11.39564054v11.39563896c0 6.83738369 4.55825526 11.39563895 11.39563896 11.39563897s11.39563895-4.55825526 11.39564054-11.39563897v-11.39563896c0-6.83738369-4.55825526-11.39563895-11.39564054-11.39564054z m0-560.53139546c6.83738369 0 11.39563895-4.55825526 11.39564054-11.39564054v-22.92534534c0-6.83738369-4.55825526-11.39563895-11.39564054-11.39563897s-11.39563895 4.55825526-11.39563896 11.39563897v22.92534534c-0.13406583 6.83738369 4.55825526 11.39563895 11.39563896 11.39564054z m0 0" fill="#1296db" p-id="2110"></path><path d="M512.53626486 488.40432242c6.83738369 0 11.39563895-4.55825526 11.39564054-11.39563896v-22.92534535c0-6.83738369-4.55825526-11.39563895-11.39564054-11.39563895s-11.39563895 4.55825526-11.39563896 11.39563895v22.92534535c-0.13406583 4.55825526 4.55825526 11.39563895 11.39563896 11.39563896z m0-336.37246395c6.83738369 0 11.39563895-4.55825526 11.39564054-11.39563895v-22.92534533c0-6.83738369-4.55825526-11.39563895-11.39564054-11.39564053s-11.39563895 4.55825526-11.39563896 11.39564053V140.63621952c-0.13406583 6.83738369 4.55825526 11.39563895 11.39563896 11.39563895z m0 201.36765364c6.83738369 0 11.39563895-4.55825526 11.39564054-11.39564056v-22.92534531c0-6.83738369-4.55825526-11.39563895-11.39564054-11.39563897s-11.39563895 4.55825526-11.39563896 11.39563897v22.92534531c-0.13406583 6.83738369 4.55825526 11.39563895 11.39563896 11.39564056z m0-66.36284174c6.83738369 0 11.39563895-4.55825526 11.39564054-11.39564054v-22.92534532c0-6.83738369-4.55825526-11.39563895-11.39564054-11.39563896s-11.39563895 4.55825526-11.39563896 11.39563896v22.92534532c-0.13406583 4.55825526 4.55825526 11.39563895 11.39563896 11.39564054z m0 558.25226863c-6.83738369 0-11.39563895 4.55825526-11.39563896 11.39563896v22.92534531c0 6.83738369 4.55825526 11.39563895 11.39563896 11.39563898s11.39563895-4.55825526 11.39564054-11.39563898v-22.92534531c0-6.70331787-4.55825526-11.39563895-11.39564054-11.39563896z m0-201.23358781c-6.83738369 0-11.39563895 4.55825526-11.39563896 11.39564055v22.92534533c0 6.83738369 4.55825526 11.39563895 11.39563896 11.39563896s11.39563895-4.55825526 11.39564054-11.39563896V655.45099174c0-6.83738369-4.55825526-11.39563895-11.39564054-11.39564055z m0-68.64196856c-6.83738369 0-11.39563895 4.55825526-11.39563896 11.39563897v22.92534531c0 6.83738369 4.55825526 11.39563895 11.39563896 11.39563896s11.39563895-4.55825526 11.39564054-11.39563896v-22.92534531c0-4.55825526-4.55825526-11.39563895-11.39564054-11.39563897z m0 336.23839808c-6.83738369 0-11.39563895 4.55825526-11.39563896 11.39563898v22.92534533c0 6.83738369 4.55825526 11.39563895 11.39563896 11.39563896s11.39563895-4.55825526 11.39564054-11.39563896v-22.92534533c0-6.83738369-4.55825526-11.39563895-11.39564054-11.39563898z m0-201.3676536c-6.83738369 0-11.39563895 4.55825526-11.39563896 11.39563897v22.92534532c0 6.83738369 4.55825526 11.39563895 11.39563896 11.39564055s11.39563895-4.55825526 11.39564054-11.39564055v-22.92534532c0-6.70331787-4.55825526-11.39563895-11.39564054-11.39563897z m0 68.64197016c-6.83738369 0-11.39563895 4.55825526-11.39563896 11.39563895v22.92534533c0 6.83738369 4.55825526 11.39563895 11.39563896 11.39563898s11.39563895-4.55825526 11.39564054-11.39563898v-22.92534533c0-6.70331787-4.55825526-11.39563895-11.39564054-11.39563895z m0-560.53139704c6.83738369 0 11.39563895-4.55825526 11.39564054-11.39563896v-22.92534536c0-6.83738369-4.55825526-11.39563895-11.39564054-11.39564052s-11.39563895 4.55825526-11.39563896 11.39564052v22.92534536c-0.13406583 6.83738369 4.55825526 11.39563895 11.39563896 11.39563896z m0-132.72568348c6.83738369 0 11.39563895-4.55825526 11.39564054-11.39563896V62.87773727c0-6.83738369-4.55825526-11.39563895-11.39564054-11.39563898s-11.39563895 4.55825526-11.39563896 11.39563898v11.39564052c-0.13406583 4.55825526 4.55825526 11.39563895 11.39563896 11.39563896z m-475.93553109 880.94996518l-9.11651211 9.1165121c-4.55825526 4.55825526-4.55825526 11.39563895 0 15.95389582 2.27912842 2.27912842 4.55825526 2.27912842 9.11651211 2.27912685s6.83738369 0 9.11651212-2.27912685l9.11651055-9.11651212c4.55825526-4.55825526 4.55825526-11.39563895 0-15.9538958-4.55825526-4.55825526-13.67476739-4.55825526-18.23302267 0z m517.09390066-487.33117006c2.27912842 0 6.83738369 0 9.11651052-2.27912841l15.95389584-15.95389582c4.55825526-4.55825526 4.55825526-11.39563895 0-15.95389423-4.55825526-4.55825526-11.39563895-4.55825526-15.95389584 0L546.85725072 461.05478764c-4.55825526 4.55825526-4.55825526 11.39563895 0 15.95389582 0 0 2.27912842 2.27912842 6.83738371 2.27912841z m228.85125421-242.52602159c2.27912842 2.27912842 4.55825526 2.27912842 9.11651054 2.27912684s6.83738369 0 9.11651212-2.27912684l15.9538958-15.95389582c4.55825526-4.55825526 4.55825526-11.39563895 0-15.95389583-4.55825526-4.55825526-11.39563895-4.55825526-15.9538958 0L784.82501549 220.67382864c-6.83738369 4.55825526-6.83738369 11.52970636-2.27912685 16.08796164z m102.96295443-91.56731549c2.27912842 0 6.83738369 0 9.11651055-2.27912841l15.95389581-15.95389425c4.55825526-4.55825526 4.55825526-11.39563895 0-15.95389581-4.55825526-4.55825526-11.39563895-4.55825526-15.95389581 0l-16.08796164 15.95389581c-4.55825526 4.55825526-4.55825526 11.39563895 0 15.95389425 0 2.27912842 4.69232266 2.27912842 6.97145109 2.27912841z m47.99575169-47.99575169c2.27912842 0 6.83738369 0 9.11651212-2.2791284l15.95389423-15.95389581c2.27912842-4.55825526 2.27912842-11.39563895-2.27912684-15.95389423s-11.39563895-4.55825526-15.95389583 0L924.38808263 78.96569889c-4.55825526 4.55825526-4.55825526 11.39563895 0 15.95389581 2.27912842 2.27912842 6.83738369 2.27912842 9.11651213 2.2791284z m-102.96295444 93.71237652c2.27912842 2.27912842 4.55825526 2.27912842 9.11651211 2.27912685s6.83738369 0 9.11651055-2.27912685l15.9538958-15.95389581c4.55825526-4.55825526 4.55825526-11.39563895 0-15.95389581-4.55825526-4.55825526-11.39563895-4.55825526-15.9538958 0l-16.08796164 15.95389581c-6.70331787 2.27912842-6.70331787 11.39563895-2.14506102 15.95389581zM599.41125767 431.1579928c2.27912842 0 6.83738369 0 9.11651212-2.27912843l15.9538958-15.95389424c4.55825526-4.55825526 4.55825526-11.39563895 0-15.9538958s-11.39563895-4.55825526-15.9538958 0l-15.95389581 15.9538958c-4.55825526 4.55825526-4.55825526 11.39563895 0 15.95389424 2.27912842 2.27912842 4.55825526 2.27912842 6.83738369 2.27912843z m41.29243536-50.27488009c2.27912842 2.27912842 4.55825526 2.27912842 9.11651214 2.27912841s6.83738369 0 9.11651054-2.27912841l16.08796164-15.9538958c4.55825526-4.55825526 4.55825526-11.39563895 0-15.95389426-4.55825526-4.55825526-11.39563895-4.55825526-16.08796164 0l-18.36708847 15.95389426c-4.55825526 4.55825526-4.55825526 11.39563895 0.13406579 15.9538958z m93.71237654-96.12557077c2.27912842 2.27912842 4.55825526 2.27912842 9.1165121 2.27912843s6.83738369 0 9.11651054-2.27912843l15.95389582-15.9538958c4.55825526-4.55825526 4.55825526-11.39563895 0-15.95389425-4.55825526-4.55825526-11.39563895-4.55825526-15.95389582 0l-15.95389423 15.95389425c-6.83738369 4.55825526-6.83738369 11.39563895-2.27912841 15.9538958z m-47.99575169 47.99575168c2.27912842 2.27912842 4.55825526 2.27912842 9.11651055 2.27912844s6.83738369 0 9.1165121-2.27912844l16.08796164-16.08796161c4.55825526-4.55825526 4.55825526-11.39563895 0-15.95389426-4.55825526-4.55825526-11.39563895-4.55825526-16.08796164 0l-18.36709004 15.95389426c-4.42418944 4.69232266-4.42418944 11.52970636 0.13406739 16.08796161zM418.68982253 586.8090216L402.73592673 602.76291739c-4.55825526 4.55825526-4.55825526 11.39563895 0 15.95389425 2.27912842 2.27912842 4.55825526 2.27912842 9.11651212 2.27912841s6.83738369 0 9.1165121-2.27912841l15.95389423-15.95389425c4.55825526-4.55825526 4.55825526-11.39563895 0-15.95389579-4.55825526-4.55825526-15.95389581-4.55825526-18.23302265 0zM274.5685001 728.65121717l-15.95389581 15.95389423c-4.55825526 4.55825526-4.55825526 11.39563895 0 15.95389582 2.27912842 2.27912842 4.55825526 2.27912842 9.11651213 2.27912842s6.83738369 0 9.11651052-2.27912842l15.95389582-15.95389582c4.55825526-4.55825526 4.55825526-11.39563895 0-15.95389423-6.83738369-4.55825526-13.67476739-4.55825526-18.23302266 0z m47.9957517-47.99575326l-15.95389582 15.95389581c-4.55825526 4.55825526-4.55825526 11.39563895 0 15.95389581 2.27912842 2.27912842 4.55825526 2.27912842 9.11651212 2.27912685s6.83738369 0 9.1165121-2.27912685l15.95389425-15.95389581c4.55825526-4.55825526 4.55825526-11.39563895 0-15.95389581-4.42418944-4.69232266-13.67476739-4.69232266-18.23302265 0z m64.08371332-45.85069065c-4.55825526-4.55825526-11.39563895-4.55825526-15.95389427 0l-15.95389581 15.95389582c-4.55825526 4.55825526-4.55825526 11.39563895 0 15.95389581 2.27912842 2.27912842 4.55825526 2.27912842 9.11651212 2.27912685s6.83738369 0 9.11651056-2.27912685l15.95389579-15.95389581c2.27912842-4.42418944 2.27912842-13.67476739-2.27912839-15.95389582zM226.43868103 776.64696883l-15.9538958 15.95389583c-4.55825526 4.55825526-4.55825526 11.39563895 0 15.95389423 2.27912842 2.27912842 4.55825526 2.27912842 9.11651211 2.27912841s6.83738369 0 9.11651212-2.27912841l15.95389424-15.95389423c4.55825526-4.55825526 4.55825526-11.39563895 0-15.95389583-4.42418944-4.55825526-13.54070156-4.55825526-18.23302267 0z m-93.7123765 93.84644235l-15.95389582 15.9538958c-4.55825526 4.55825526-4.55825526 11.39563895 0 15.95389581 2.27912842 2.27912842 4.55825526 2.27912842 9.11651213 2.27912684s6.83738369 0 9.11651213-2.27912684l15.95389422-15.95389581c4.55825526-4.55825526 4.55825526-11.39563895 0-15.9538958-4.55825526-4.55825526-13.67476739-2.27912842-18.23302266 0z m-32.04185744 48.12981906c-4.55825526-4.55825526-11.39563895-4.55825526-15.95389424 0l-15.95389582 15.95389583c-4.55825526 4.55825526-4.55825526 11.39563895 0 15.95389422 2.27912842 2.27912842 4.55825526 2.27912842 9.11651213 2.27912842s6.83738369 0 9.11651055-2.27912842l15.9538958-15.95389422c2.27912842-4.55825526 2.27912842-11.39563895-2.27912842-15.95389583z m80.0376091-93.84644233l-15.95389422 15.95389423c-4.55825526 4.55825526-4.55825526 11.39563895 0 15.95389582 2.27912842 2.27912842 4.55825526 2.27912842 9.11651054 2.27912843s6.83738369 0 9.11651212-2.27912843l15.95389581-15.95389582c4.55825526-4.55825526 4.55825526-11.39563895 0-15.95389423-4.42418944-4.55825526-13.67476739-4.55825526-18.23302425 0zM464.40644737 538.67920253l-15.95389581 16.08796162c-4.55825526 4.55825526-4.55825526 11.39563895 0 15.9538958 2.27912842 2.27912842 4.55825526 2.27912842 9.11651211 2.27912843s6.83738369 0 9.11651054-2.27912843l13.67476737-15.9538958c4.55825526-4.55825526 4.55825526-11.39563895 0-16.08796162-4.42418944-4.55825526-11.26157314-4.55825526-15.95389421 0z m517.09389905-487.33117005c2.27912842 0 6.83738369 0 9.11651213-2.27912844l9.11651213-9.11651211c4.55825526-4.55825526 4.55825526-11.39563895 0-16.08796164-4.55825526-4.55825526-11.39563895-4.55825526-15.95389583 0l-9.11651212 9.11651214c-4.55825526 4.55825526-4.55825526 11.39563895 0 15.95389579 0 0.13406583 2.27912842 2.41319424 6.83738369 2.41319426z m6.97145109 915.27094945c-4.55825526-4.55825526-11.39563895-4.55825526-15.9538958 0-4.55825526 4.55825526-4.55825526 11.39563895 0 15.9538958l9.11651212 9.11651212c2.27912842 2.27912842 4.55825526 2.27912842 9.11651053 2.27912685s6.83738369 0 9.11651213-2.27912685c4.55825526-4.55825526 4.55825526-11.39563895 0-15.95389582l-11.39563898-9.1165121zM624.61573142 618.85087904c4.55825526-4.55825526 4.55825526-11.39563895 0-15.95389582l-15.9538958-15.95389582c-4.55825526-4.55825526-11.39563895-4.55825526-15.95389425 0-4.55825526 4.55825526-4.55825526 11.39563895 0 15.95389582l15.95389425 15.95389582c2.27912842 2.27912842 4.55825526 2.27912842 9.1165121 2.27912683s4.55825526 0 6.8373837-2.27912683zM910.57924943 904.81439703c4.55825526-4.55825526 4.55825526-11.39563895 0-15.9538958l-15.95389581-15.95389581c-4.55825526-4.55825526-11.39563895-4.55825526-16.08796164 0-4.55825526 4.55825526-4.55825526 11.39563895 0 15.95389581l16.08796164 15.9538958c2.27912842 2.27912842 4.55825526 2.27912842 9.11651212 2.27912686s4.55825526-2.27912842 6.83738369-2.27912686zM402.73592673 396.83700851c-4.55825526 4.55825526-4.55825526 11.39563895 0 15.95389424l15.9538958 15.9538958c2.27912842 2.27912842 4.55825526 2.27912842 9.11651212 2.27912842s6.83738369 0 9.11651053-2.27912842c4.55825526-4.55825526 4.55825526-11.39563895 0-15.9538958l-15.95389423-15.95389424c-6.83738369-4.55825526-13.67476739-4.55825526-18.23302422 0z m553.69401334 553.69401178c4.55825526-4.55825526 4.55825526-11.39563895 0-15.95389422l-16.08796163-15.95389583c-4.55825526-4.55825526-11.39563895-4.55825526-15.95389581 0-4.55825526 4.55825526-4.55825526 11.39563895 0 15.95389583l15.95389581 15.95389422c2.27912842 2.27912842 4.55825526 2.27912842 9.11651213 2.27912842 4.69232266 0.13406583 4.69232266 0.13406583 6.9714495-2.27912842zM766.457927 760.69307303c4.55825526-4.55825526 4.55825526-11.39563895 0-15.95389424l-15.9538958-15.95389579c-4.55825526-4.55825526-11.39563895-4.55825526-15.95389583 0-4.55825526 4.55825526-4.55825526 11.39563895 0 15.95389579l15.95389583 15.95389424c2.27912842 2.27912842 4.55825526 2.27912842 9.11651211 2.27912842s4.55825526 0 6.83738369-2.27912842z m-47.99575325-47.99575168c4.55825526-4.55825526 4.55825526-11.39563895 0-15.9538958l-15.95389425-15.95389425c-4.55825526-4.55825526-11.39563895-4.55825526-15.95389579 0-4.55825526 4.55825526-4.55825526 11.39563895 0 15.95389425l15.95389579 15.9538958c2.27912842 2.27912842 4.55825526 2.27912842 9.11651056 2.27912842s4.55825526 0 6.83738369-2.27912842z m96.12557075 80.03760911l-15.95389424-15.95389579c-4.55825526-4.55825526-11.39563895-4.55825526-15.95389581 0-4.55825526 4.55825526-4.55825526 11.39563895 0 15.95389579l15.95389581 15.95389581c2.27912842 2.27912842 4.55825526 2.27912842 9.11651054 2.27912686s6.83738369 0 9.11651213-2.27912686c2.27912842-4.55825526 2.27912842-11.39563895-2.27912843-15.95389581z m-141.9762614-125.88829975c4.55825526-4.55825526 4.55825526-11.39563895 0-15.9538958l-16.08796163-15.95389426c-4.55825526-4.55825526-11.39563895-4.55825526-15.95389423 0-4.55825526 4.55825526-4.55825526 11.39563895 0 15.95389426l15.95389423 15.9538958c0 2.27912842 4.55825526 2.27912842 6.8373837 2.27912842 2.41319424 0 6.97144953 0 9.25057793-2.27912842zM862.58349776 840.73068214l-15.95389581-15.95389423c-4.55825526-4.55825526-11.39563895-4.55825526-16.08796163 0-4.55825526 4.55825526-4.55825526 11.39563895 0 15.95389423l16.08796163 15.95389582c2.27912842 2.27912842 4.55825526 2.27912842 9.11651211 2.27912843s6.83738369 0 9.11651053-2.27912843c2.27912842-4.42418944 2.27912842-11.39563895-2.27912683-15.95389582zM448.45255156 442.68769916c-4.55825526 4.55825526-4.55825526 11.39563895 0 15.95389422l15.95389581 15.95389584c2.27912842 2.27912842 4.55825526 2.27912842 9.11651055 2.27912841s6.83738369 0 9.11651211-2.27912841c4.55825526-4.55825526 4.55825526-11.39563895 0-15.95389584l-15.95389582-15.95389422c-6.83738369-4.55825526-13.67476739-4.55825526-18.23302265 0zM258.48053849 268.80364614l15.95389422 15.9538958c2.27912842 2.27912842 4.55825526 2.27912842 9.11651212 2.27912843s6.83738369 0 9.1165121-2.27912843c4.55825526-4.55825526 4.55825526-11.39563895 0-15.9538958l-18.36709005-15.95389425c-4.55825526-4.55825526-11.39563895-4.55825526-15.95389579 0-4.42418944 4.42418944-4.42418944 11.26157314 0.1340674 15.95389425z m-47.99575326-48.1298175l15.9538958 15.95389425c2.27912842 2.27912842 4.55825526 2.27912842 9.11651211 2.27912841s6.83738369 0 9.11651056-2.27912841c4.55825526-4.55825526 4.55825526-11.39563895 0-15.95389425l-15.95389424-15.95389581c-4.55825526-4.55825526-11.39563895-4.55825526-15.95389583 0-4.55825526 4.55825526-6.83738369 13.67476739-2.2791284 15.95389581z m144.12132401 128.16742661c-4.55825526 4.55825526-4.55825526 11.39563895 0 15.95389581l15.95389422 15.95389583c2.27912842 2.27912842 4.55825526 2.27912842 9.11651213 2.27912684s6.83738369 0 9.11651212-2.27912684c4.55825526-4.55825526 4.55825526-11.39563895 0-15.95389583l-18.36709008-15.95389581c-4.29012363-4.55825526-11.26157314-4.55825526-15.81982839 0z m222.0138705 205.9259089l-15.9538958-16.08796162c-4.55825526-4.55825526-11.39563895-4.55825526-15.95389581 0-4.55825526 4.55825526-4.55825526 11.39563895 0 16.08796162l15.95389581 15.9538958c2.27912842 2.27912842 4.55825526 2.27912842 9.11651211 2.27912843s6.83738369 0 9.11651054-2.27912843c2.27912842-4.55825526 2.27912842-11.39563895-2.27912685-15.9538958zM306.61035598 316.7993994l15.95389582 16.08796162c2.27912842 2.27912842 4.55825526 2.27912842 9.11651209 2.27912684s6.83738369 0 9.11651056-2.27912684c4.55825526-4.55825526 4.55825526-11.39563895 0-16.08796162l-15.95389425-15.95389581c-4.55825526-4.55825526-11.39563895-4.55825526-15.95389579 0-4.55825526 4.55825526-6.83738369 11.39563895-2.27912843 15.95389581zM68.64259122 62.87773727c-4.55825526 4.55825526-4.55825526 11.39563895 0 15.95389579l15.95389424 15.95389581c2.27912842 2.27912842 4.55825526 2.27912842 9.11651211 2.27912686s6.83738369 0 9.11651212-2.27912686c4.55825526-4.55825526 4.55825526-11.39563895 0-15.95389581L84.59648546 62.87773727c-4.55825526-4.69232266-11.39563895-4.69232266-15.95389424 0z m47.99575168 47.99575322c-4.55825526 4.55825526-4.55825526 11.39563895 0 15.95389425l15.95389581 15.95389581c2.27912842 2.27912842 4.55825526 2.27912842 6.83738369 2.27912841 2.27912842 0 6.83738369 0 9.11651055-2.27912841 4.55825526-4.55825526 4.55825526-11.39563895 0-15.95389581l-15.95389424-15.95389425c-4.42418944-4.55825526-11.39563895-4.55825526-15.95389581 0z m48.12981907 47.9957517c-4.55825526 4.55825526-4.55825526 11.39563895 0 15.9538958l15.95389422 15.95389422c2.27912842 2.27912842 4.55825526 2.27912842 9.11651213 2.27912844s6.83738369 0 9.11651212-2.27912844c4.55825526-4.55825526 4.55825526-11.39563895 0-15.95389422l-18.36709005-15.9538958c-4.42418944-4.55825526-11.26157314-4.55825526-15.81982842 0zM36.60073377 46.78977561c2.27912842 2.27912842 4.55825526 4.55825526 9.11651212 4.55825687s6.83738369 0 9.11651055-2.27912844c4.55825526-4.55825526 4.55825526-11.39563895 0-15.95389582l-9.11651055-9.11651053c-4.55825526-4.55825526-11.39563895-4.55825526-15.9538958 0-4.55825526 4.55825526-4.55825526 11.39563895 0 16.08796163l6.83738368 6.70331629z m0 0" fill="#1296db" p-id="2111"></path></svg>